
    <svg id="Layer_1" data-name="Layer 1" xmlns="http://www.w3.org/2000/svg" viewBox="0 0 788.78 618.22"><defs><style>.cls-1{stroke:#fff;stroke-miterlimit:10;}</style></defs><circle cx="276.54" cy="76.88" r="76.88"/><path d="M554.8,689.72c5.26.28,10.7,1.92,15.66,2.57a284.07,284.07,0,0,0,29.28,2.21c34.84.89,69.75-.32,104.24-5.63,17.29-2.67,34.71-5.6,51.79-9.4,13.43-3,26.18-8,39.29-11.87a49.91,49.91,0,0,0-49-47.33H673.24l-.31-191.87a108.49,108.49,0,0,0-43.44-86.88c-60-44.69-164.68-123.44-190.93-137.5a64.52,64.52,0,0,0-31.88-8.12,66.62,66.62,0,0,0-66.56,66.56v185L196.68,471.52a49.39,49.39,0,0,0-40.94,50.94c0,1.87-.31,116.56-.31,116.56H111c-13.63.88-27.18,1.83-40.68,4.05C55.07,645.6,37.6,649,25.7,659.73a35.76,35.76,0,0,0-11.1,19.48A69.94,69.94,0,0,0,19,694.29a45.41,45.41,0,0,0,10.75,3.93c4.19-.24,8.37-.56,12.43-.64,10.15-.19,20.28-.93,30.41-1.34,41.4-1.7,82.6-6.6,123.73-12.13,1.56-1.23,3.08-2.51,4.59-3.81.28-.57.55-1.15.86-1.71a5.75,5.75,0,0,1,.65-1,114.86,114.86,0,0,0,9.4-28.1c.28-10.8-3.25-21.55-2-32.46,1.06-9.41,3.9-19,10.22-26.25A24.33,24.33,0,0,1,233,583a29.71,29.71,0,0,1,9.16-.65c7.21-1.21,14.49-.13,21.82.2,8.95.41,18,0,26.95,0A334.83,334.83,0,0,1,324.47,584H450.12v.33a12.73,12.73,0,0,1,4.58,1.4c10.51,5.55,8.9,19,11.71,28.68a5,5,0,0,1,.16,2.07c3.16,7.53,3.68,15.72,6.39,23.42a82,82,0,0,0,13.2,23.51,78,78,0,0,0,11.91,11.84c2.51.89,4.85,2.72,7.14,4,1,.45,2,.88,2.8,1.22,1.12.46,2.23.94,3.34,1.43,3,1.13,6.07,2.11,9.13,2.94,2.1.56,4.23,1,6.35,1.48l6.17,1.09a192.13,192.13,0,0,0,19.76,1.81A5.15,5.15,0,0,1,554.8,689.72ZM520.12,446.83a81.81,81.81,0,0,0-65.63-18.12h-.31l-34.06,5.62V337.15l113.44,88.12a104.82,104.82,0,0,1,40.62,82.81l.63,112.5H549.18V508.4A82.11,82.11,0,0,0,520.12,446.83Z" transform="translate(-6.28 -80)"/><path d="M51.56,511.88c38.75,17.5,82.19-.94,101.88-38.44,25-48.44,14.06-103.44-7.5-134.06-15,18.12-38.13,23.74-61.25,25.31-36.88,2.5-58.44,16.25-71.57,45.31A77,77,0,0,0,51.56,511.88Z" transform="translate(-6.28 -80)"/><path class="cls-1" d="M225,583.48s-14.47,54.78,19.18,64.95,64.56-9,64.56-9S335,615.48,325.22,585" transform="translate(-6.28 -80)"/><path class="cls-1" d="M302.91,579.17l-5.48,25.44-41.86,21.13S233,581.45,234,583.48" transform="translate(-6.28 -80)"/><path d="M253.41,628.87c.59-.39,51.85-23.87,51.85-23.87l18-17.8,5.09-21.53s-98,9.4-98.22,10S253,627.89,253,627.89" transform="translate(-6.28 -80)"/><path d="M220.54,585.63,234,598.74s-6.46-24.07-6.72-24.46" transform="translate(-6.28 -80)"/><path d="M480.57,900.83" transform="translate(-6.28 -80)"/><line x1="204.75" y1="568.17" x2="215.67" y2="497.48"/><polyline points="213.76 509.81 204.75 565.04 188.77 520.7"/></svg>
